<svg width="64" height="64" viewBox="0 0 64 64" fill="none" xmlns="http://www.w3.org/2000/svg">
<path d="M32.1546 53.3338C26.2275 53.3338 21.1902 51.26 17.0426 47.1124C12.8951 42.9631 10.8213 37.9258 10.8213 32.0004C10.8213 26.5996 12.5813 21.9151 16.1013 17.9471C19.6248 13.9827 23.984 11.6422 29.1786 10.9258C29.3226 10.9258 29.464 10.9311 29.6026 10.9418C29.7413 10.9524 29.8773 10.9676 30.0106 10.9871C29.1111 12.2422 28.3991 13.6378 27.8746 15.1738C27.3502 16.7116 27.088 18.3213 27.088 20.0031C27.088 24.7444 28.7466 28.7738 32.064 32.0911C35.3831 35.4102 39.4133 37.0698 44.1546 37.0698C45.8471 37.0698 47.4586 36.8076 48.9893 36.2831C50.5217 35.7587 51.8977 35.0467 53.1173 34.1471C53.1386 34.2804 53.1546 34.4164 53.1653 34.5551C53.1742 34.6938 53.1786 34.8342 53.1786 34.9764C52.496 40.1729 50.1715 44.532 46.2053 48.0538C42.2391 51.5756 37.5573 53.3356 32.1546 53.3338Z" fill="#4568E2"/>
</svg>
