<svg width="64" height="64" viewBox="0 0 64 64" fill="none" xmlns="http://www.w3.org/2000/svg">
<path d="M32.0003 45.3327C28.3114 45.3327 25.1674 44.0322 22.5683 41.4313C19.9692 38.8305 18.6688 35.6865 18.667 31.9993C18.667 28.3105 19.9674 25.1665 22.5683 22.5674C25.1692 19.9682 28.3132 18.6678 32.0003 18.666C35.6892 18.666 38.8341 19.9665 41.435 22.5674C44.0359 25.1682 45.3354 28.3122 45.3337 31.9993C45.3337 35.6882 44.0332 38.8331 41.4323 41.434C38.8314 44.0349 35.6874 45.3345 32.0003 45.3327ZM13.3337 34.666H2.66699V29.3327H13.3337V34.666ZM61.3337 34.666H50.667V29.3327H61.3337V34.666ZM29.3337 13.3327V2.66602H34.667V13.3327H29.3337ZM29.3337 61.3327V50.666H34.667V61.3327H29.3337ZM17.067 20.666L10.3337 14.1993L14.1337 10.266L20.5337 16.9327L17.067 20.666ZM49.867 53.7327L43.4003 46.9994L46.9337 43.3327L53.667 49.7993L49.867 53.7327ZM43.3337 17.066L49.8003 10.3327L53.7337 14.1327L47.067 20.5327L43.3337 17.066ZM10.267 49.866L17.0003 43.3993L20.667 46.9327L14.2003 53.666L10.267 49.866Z" fill="#E2A545"/>
</svg>
