<svg width="64" height="64" viewBox="0 0 64 64" fill="none" xmlns="http://www.w3.org/2000/svg">
<path fill-rule="evenodd" clip-rule="evenodd" d="M39.9999 56C39.9999 58.1217 39.157 60.1566 37.6567 61.6569C36.1564 63.1571 34.1216 64 31.9999 64C29.8781 64 27.8433 63.1571 26.343 61.6569C24.8427 60.1566 23.9999 58.1217 23.9999 56C23.9999 53.8783 24.8427 51.8434 26.343 50.3431C27.8433 48.8429 29.8781 48 31.9999 48C34.1216 48 36.1564 48.8429 37.6567 50.3431C39.157 51.8434 39.9999 53.8783 39.9999 56ZM47.1199 20.636C46.5574 20.0742 45.7949 19.7586 44.9999 19.7586C44.2049 19.7586 43.4424 20.0742 42.8799 20.636L34.9999 28.516V3C34.9999 2.20435 34.6838 1.44129 34.1212 0.87868C33.5586 0.31607 32.7955 0 31.9999 0C31.2042 0 30.4412 0.31607 29.8786 0.87868C29.3159 1.44129 28.9999 2.20435 28.9999 3V28.516L21.1199 20.636C20.5512 20.1061 19.799 19.8176 19.0218 19.8313C18.2446 19.845 17.503 20.1599 16.9534 20.7095C16.4037 21.2592 16.0889 22.0007 16.0752 22.7779C16.0615 23.5551 16.35 24.3073 16.8799 24.876L29.8799 37.876L31.9999 40L34.1199 37.88L47.1199 24.88C47.3987 24.6014 47.6198 24.2706 47.7707 23.9065C47.9216 23.5424 47.9992 23.1521 47.9992 22.758C47.9992 22.3639 47.9216 21.9736 47.7707 21.6095C47.6198 21.2454 47.3987 20.9146 47.1199 20.636Z" fill="#404040"/>
</svg>
