<svg width="32" height="32" viewBox="0 0 32 32" fill="none" xmlns="http://www.w3.org/2000/svg">
<path d="M26.6665 10.6666L15.9998 17.3333L5.33317 10.6666V7.99998L15.9998 14.6666L26.6665 7.99998M26.6665 5.33331H5.33317C3.85317 5.33331 2.6665 6.51998 2.6665 7.99998V24C2.6665 24.7072 2.94746 25.3855 3.44755 25.8856C3.94765 26.3857 4.62593 26.6666 5.33317 26.6666H26.6665C27.3737 26.6666 28.052 26.3857 28.5521 25.8856C29.0522 25.3855 29.3332 24.7072 29.3332 24V7.99998C29.3332 7.29274 29.0522 6.61446 28.5521 6.11436C28.052 5.61426 27.3737 5.33331 26.6665 5.33331Z" fill="#404040"/>
</svg>
