<svg width="32" height="32" viewBox="0 0 32 32" fill="none" xmlns="http://www.w3.org/2000/svg">
<path fill-rule="evenodd" clip-rule="evenodd" d="M16 2C8.28044 2 2 8.28044 2 16C2 22.0164 5.81506 27.1576 11.1526 29.1338C10.9988 27.7633 11.023 25.5188 11.2766 24.432C11.5142 23.4112 12.8113 17.9268 12.8113 17.9268C12.8113 17.9268 12.4197 17.1426 12.4197 15.9844C12.4197 14.1643 13.4742 12.8062 14.7874 12.8062C15.9043 12.8062 16.4429 13.6448 16.4429 14.6495C16.4429 15.773 15.7287 17.4511 15.3587 19.0064C15.0502 20.3096 16.012 21.3722 17.2966 21.3722C19.6225 21.3722 21.4104 18.9193 21.4104 15.3793C21.4104 12.246 19.1595 10.055 15.9446 10.055C12.2214 10.055 10.0358 12.848 10.0358 15.7347C10.0358 16.8592 10.4687 18.0652 11.0098 18.7216C11.1165 18.8514 11.1321 18.9647 11.1004 19.0966C11.0012 19.5098 10.7808 20.3987 10.737 20.5809C10.6801 20.821 10.5472 20.8708 10.2996 20.7556C8.66475 19.9945 7.64294 17.6052 7.64294 15.6854C7.64294 11.5575 10.6418 7.76575 16.2904 7.76575C20.8306 7.76575 24.3585 11.0002 24.3585 15.3245C24.3585 19.8349 21.5141 23.4646 17.5674 23.4646C16.2411 23.4646 14.9948 22.7755 14.5685 21.9616C14.5685 21.9616 13.9121 24.4602 13.7525 25.0728C13.4771 26.1321 12.2982 28.3268 11.7064 29.3237C13.0934 29.7722 14.5422 30.0004 16 30C23.7198 30 30 23.7198 30 16C30 8.28044 23.7198 2 16 2Z" fill="#404040"/>
</svg>
